<mxfile host="app.diagrams.net" modified="2020-11-23T02:15:12.146Z" agent="5.0 (Macintosh; Intel Mac OS X 10_15_5) AppleWebKit/537.36 (KHTML, like Gecko) Chrome/86.0.4240.198 Safari/537.36" etag="ZnQkBCyX2luFo3GlxcWr" version="13.10.1" type="github">
  <diagram id="gipwhu5lE7akxA2x__t_" name="Page-1">
    <mxGraphModel dx="2066" dy="1161" grid="1" gridSize="10" guides="1" tooltips="1" connect="1" arrows="1" fold="1" page="1" pageScale="1" pageWidth="850" pageHeight="1100" math="0" shadow="0">
      <root>
        <mxCell id="0" />
        <mxCell id="1" parent="0" />
        <mxCell id="SA7CHUhkUmkVCsYWN8fS-1" value="DocumentWriteCommand" style="swimlane;fontStyle=1;align=center;verticalAlign=top;childLayout=stackLayout;horizontal=1;startSize=26;horizontalStack=0;resizeParent=1;resizeParentMax=0;resizeLast=0;collapsible=1;marginBottom=0;" parent="1" vertex="1">
          <mxGeometry x="1280" y="448" width="360" height="200" as="geometry" />
        </mxCell>
        <mxCell id="SA7CHUhkUmkVCsYWN8fS-2" value="- editableDoc: Document&#xa;- text: String" style="text;strokeColor=none;fillColor=none;align=left;verticalAlign=top;spacingLeft=4;spacingRight=4;overflow=hidden;rotatable=0;points=[[0,0.5],[1,0.5]];portConstraint=eastwest;" parent="SA7CHUhkUmkVCsYWN8fS-1" vertex="1">
          <mxGeometry y="26" width="360" height="44" as="geometry" />
        </mxCell>
        <mxCell id="SA7CHUhkUmkVCsYWN8fS-3" value="" style="line;strokeWidth=1;fillColor=none;align=left;verticalAlign=middle;spacingTop=-1;spacingLeft=3;spacingRight=3;rotatable=0;labelPosition=right;points=[];portConstraint=eastwest;" parent="SA7CHUhkUmkVCsYWN8fS-1" vertex="1">
          <mxGeometry y="70" width="360" height="8" as="geometry" />
        </mxCell>
        <mxCell id="SA7CHUhkUmkVCsYWN8fS-4" value="+ DocumentWriteCommand(doc Document, text String)&#xa;+ undo (): void&#xa;+ redo(): void&#xa;+ toString(): String" style="text;strokeColor=none;fillColor=none;align=left;verticalAlign=top;spacingLeft=4;spacingRight=4;overflow=hidden;rotatable=0;points=[[0,0.5],[1,0.5]];portConstraint=eastwest;" parent="SA7CHUhkUmkVCsYWN8fS-1" vertex="1">
          <mxGeometry y="78" width="360" height="122" as="geometry" />
        </mxCell>
        <mxCell id="SA7CHUhkUmkVCsYWN8fS-5" style="edgeStyle=orthogonalEdgeStyle;rounded=0;orthogonalLoop=1;jettySize=auto;html=1;entryX=0;entryY=0.5;entryDx=0;entryDy=0;endArrow=open;endFill=0;" parent="1" source="SA7CHUhkUmkVCsYWN8fS-7" target="SA7CHUhkUmkVCsYWN8fS-36" edge="1">
          <mxGeometry relative="1" as="geometry" />
        </mxCell>
        <mxCell id="SA7CHUhkUmkVCsYWN8fS-6" value="Uses" style="edgeLabel;html=1;align=center;verticalAlign=middle;resizable=0;points=[];" parent="SA7CHUhkUmkVCsYWN8fS-5" vertex="1" connectable="0">
          <mxGeometry x="0.1228" y="-1" relative="1" as="geometry">
            <mxPoint as="offset" />
          </mxGeometry>
        </mxCell>
        <mxCell id="SA7CHUhkUmkVCsYWN8fS-7" value="TestEditor" style="swimlane;fontStyle=1;align=center;verticalAlign=top;childLayout=stackLayout;horizontal=1;startSize=30;horizontalStack=0;resizeParent=1;resizeParentMax=0;resizeLast=0;collapsible=1;marginBottom=0;" parent="1" vertex="1">
          <mxGeometry x="680" y="220" width="360" height="112" as="geometry">
            <mxRectangle x="200" y="220" width="90" height="30" as="alternateBounds" />
          </mxGeometry>
        </mxCell>
        <mxCell id="SA7CHUhkUmkVCsYWN8fS-8" value="+ main(args String[]): void" style="text;strokeColor=none;fillColor=none;align=left;verticalAlign=top;spacingLeft=4;spacingRight=4;overflow=hidden;rotatable=0;points=[[0,0.5],[1,0.5]];portConstraint=eastwest;" parent="SA7CHUhkUmkVCsYWN8fS-7" vertex="1">
          <mxGeometry y="30" width="360" height="82" as="geometry" />
        </mxCell>
        <mxCell id="SA7CHUhkUmkVCsYWN8fS-13" value="Document" style="swimlane;fontStyle=1;align=center;verticalAlign=top;childLayout=stackLayout;horizontal=1;startSize=26;horizontalStack=0;resizeParent=1;resizeParentMax=0;resizeLast=0;collapsible=1;marginBottom=0;" parent="1" vertex="1">
          <mxGeometry x="1710" y="170" width="160" height="188" as="geometry" />
        </mxCell>
        <mxCell id="SA7CHUhkUmkVCsYWN8fS-14" value="-textArray: ArrayList&#xa;-name:String" style="text;strokeColor=none;fillColor=none;align=left;verticalAlign=top;spacingLeft=4;spacingRight=4;overflow=hidden;rotatable=0;points=[[0,0.5],[1,0.5]];portConstraint=eastwest;" parent="SA7CHUhkUmkVCsYWN8fS-13" vertex="1">
          <mxGeometry y="26" width="160" height="44" as="geometry" />
        </mxCell>
        <mxCell id="SA7CHUhkUmkVCsYWN8fS-15" value="" style="line;strokeWidth=1;fillColor=none;align=left;verticalAlign=middle;spacingTop=-1;spacingLeft=3;spacingRight=3;rotatable=0;labelPosition=right;points=[];portConstraint=eastwest;" parent="SA7CHUhkUmkVCsYWN8fS-13" vertex="1">
          <mxGeometry y="70" width="160" height="8" as="geometry" />
        </mxCell>
        <mxCell id="SA7CHUhkUmkVCsYWN8fS-16" value="+Document(String)&#xa;+Write(String):void&#xa;+Erase(String):void&#xa;+Bold(int):void&#xa;+RemoveBold(int):void&#xa;+Read():String" style="text;strokeColor=none;fillColor=none;align=left;verticalAlign=top;spacingLeft=4;spacingRight=4;overflow=hidden;rotatable=0;points=[[0,0.5],[1,0.5]];portConstraint=eastwest;" parent="SA7CHUhkUmkVCsYWN8fS-13" vertex="1">
          <mxGeometry y="78" width="160" height="110" as="geometry" />
        </mxCell>
        <mxCell id="SA7CHUhkUmkVCsYWN8fS-17" style="edgeStyle=orthogonalEdgeStyle;rounded=0;orthogonalLoop=1;jettySize=auto;html=1;entryX=0.917;entryY=-0.108;entryDx=0;entryDy=0;dashed=1;endArrow=block;endFill=0;entryPerimeter=0;" parent="1" source="SA7CHUhkUmkVCsYWN8fS-19" target="SA7CHUhkUmkVCsYWN8fS-52" edge="1">
          <mxGeometry relative="1" as="geometry">
            <mxPoint x="885" y="487" as="targetPoint" />
          </mxGeometry>
        </mxCell>
        <mxCell id="SA7CHUhkUmkVCsYWN8fS-18" value="Implements" style="edgeLabel;html=1;align=center;verticalAlign=middle;resizable=0;points=[];" parent="SA7CHUhkUmkVCsYWN8fS-17" vertex="1" connectable="0">
          <mxGeometry x="-0.462" y="-3" relative="1" as="geometry">
            <mxPoint as="offset" />
          </mxGeometry>
        </mxCell>
        <mxCell id="SA7CHUhkUmkVCsYWN8fS-19" value="DocumentBoldCommand" style="swimlane;fontStyle=1;align=center;verticalAlign=top;childLayout=stackLayout;horizontal=1;startSize=26;horizontalStack=0;resizeParent=1;resizeParentMax=0;resizeLast=0;collapsible=1;marginBottom=0;" parent="1" vertex="1">
          <mxGeometry x="980" y="658" width="250" height="140" as="geometry" />
        </mxCell>
        <mxCell id="SA7CHUhkUmkVCsYWN8fS-20" value="-editableDoc;Document&#xa;-line:int" style="text;strokeColor=none;fillColor=none;align=left;verticalAlign=top;spacingLeft=4;spacingRight=4;overflow=hidden;rotatable=0;points=[[0,0.5],[1,0.5]];portConstraint=eastwest;" parent="SA7CHUhkUmkVCsYWN8fS-19" vertex="1">
          <mxGeometry y="26" width="250" height="34" as="geometry" />
        </mxCell>
        <mxCell id="SA7CHUhkUmkVCsYWN8fS-21" value="" style="line;strokeWidth=1;fillColor=none;align=left;verticalAlign=middle;spacingTop=-1;spacingLeft=3;spacingRight=3;rotatable=0;labelPosition=right;points=[];portConstraint=eastwest;" parent="SA7CHUhkUmkVCsYWN8fS-19" vertex="1">
          <mxGeometry y="60" width="250" height="8" as="geometry" />
        </mxCell>
        <mxCell id="SA7CHUhkUmkVCsYWN8fS-22" value="+DocumentBoldCommand(Document,int)&#xa;+undo():void&#xa;+redo():void&#xa;+toString():String" style="text;strokeColor=none;fillColor=none;align=left;verticalAlign=top;spacingLeft=4;spacingRight=4;overflow=hidden;rotatable=0;points=[[0,0.5],[1,0.5]];portConstraint=eastwest;" parent="SA7CHUhkUmkVCsYWN8fS-19" vertex="1">
          <mxGeometry y="68" width="250" height="72" as="geometry" />
        </mxCell>
        <mxCell id="SA7CHUhkUmkVCsYWN8fS-23" style="edgeStyle=orthogonalEdgeStyle;rounded=0;orthogonalLoop=1;jettySize=auto;html=1;dashed=1;endArrow=block;endFill=0;entryX=0;entryY=-0.08;entryDx=0;entryDy=0;entryPerimeter=0;" parent="1" source="SA7CHUhkUmkVCsYWN8fS-25" target="SA7CHUhkUmkVCsYWN8fS-52" edge="1">
          <mxGeometry relative="1" as="geometry">
            <mxPoint x="630" y="440" as="targetPoint" />
          </mxGeometry>
        </mxCell>
        <mxCell id="SA7CHUhkUmkVCsYWN8fS-24" value="Implements" style="edgeLabel;html=1;align=center;verticalAlign=middle;resizable=0;points=[];" parent="SA7CHUhkUmkVCsYWN8fS-23" vertex="1" connectable="0">
          <mxGeometry x="-0.4361" y="-2" relative="1" as="geometry">
            <mxPoint as="offset" />
          </mxGeometry>
        </mxCell>
        <mxCell id="SA7CHUhkUmkVCsYWN8fS-25" value="DocumentEraseCommand" style="swimlane;fontStyle=1;align=center;verticalAlign=top;childLayout=stackLayout;horizontal=1;startSize=26;horizontalStack=0;resizeParent=1;resizeParentMax=0;resizeLast=0;collapsible=1;marginBottom=0;" parent="1" vertex="1">
          <mxGeometry x="360" y="670" width="270" height="160" as="geometry" />
        </mxCell>
        <mxCell id="SA7CHUhkUmkVCsYWN8fS-26" value="- editableDoc: Document&#xa;- text: String" style="text;strokeColor=none;fillColor=none;align=left;verticalAlign=top;spacingLeft=4;spacingRight=4;overflow=hidden;rotatable=0;points=[[0,0.5],[1,0.5]];portConstraint=eastwest;" parent="SA7CHUhkUmkVCsYWN8fS-25" vertex="1">
          <mxGeometry y="26" width="270" height="44" as="geometry" />
        </mxCell>
        <mxCell id="SA7CHUhkUmkVCsYWN8fS-27" value="" style="line;strokeWidth=1;fillColor=none;align=left;verticalAlign=middle;spacingTop=-1;spacingLeft=3;spacingRight=3;rotatable=0;labelPosition=right;points=[];portConstraint=eastwest;" parent="SA7CHUhkUmkVCsYWN8fS-25" vertex="1">
          <mxGeometry y="70" width="270" height="8" as="geometry" />
        </mxCell>
        <mxCell id="SA7CHUhkUmkVCsYWN8fS-28" value="+ DocumentEraseCommand(Document, String)&#xa;+ undo():void&#xa;+ redo():void&#xa;+ toString:String" style="text;strokeColor=none;fillColor=none;align=left;verticalAlign=top;spacingLeft=4;spacingRight=4;overflow=hidden;rotatable=0;points=[[0,0.5],[1,0.5]];portConstraint=eastwest;" parent="SA7CHUhkUmkVCsYWN8fS-25" vertex="1">
          <mxGeometry y="78" width="270" height="82" as="geometry" />
        </mxCell>
        <mxCell id="SA7CHUhkUmkVCsYWN8fS-29" style="edgeStyle=orthogonalEdgeStyle;rounded=0;orthogonalLoop=1;jettySize=auto;html=1;exitX=0.488;exitY=0.001;exitDx=0;exitDy=0;entryX=0.458;entryY=1.031;entryDx=0;entryDy=0;entryPerimeter=0;exitPerimeter=0;dashed=1;endArrow=block;endFill=0;" parent="1" source="SA7CHUhkUmkVCsYWN8fS-31" target="SA7CHUhkUmkVCsYWN8fS-52" edge="1">
          <mxGeometry relative="1" as="geometry">
            <Array as="points">
              <mxPoint x="797" y="670" />
            </Array>
            <mxPoint x="801" y="534.988" as="targetPoint" />
          </mxGeometry>
        </mxCell>
        <mxCell id="SA7CHUhkUmkVCsYWN8fS-30" value="Implements" style="edgeLabel;html=1;align=center;verticalAlign=middle;resizable=0;points=[];" parent="SA7CHUhkUmkVCsYWN8fS-29" vertex="1" connectable="0">
          <mxGeometry x="0.1361" y="-2" relative="1" as="geometry">
            <mxPoint as="offset" />
          </mxGeometry>
        </mxCell>
        <mxCell id="SA7CHUhkUmkVCsYWN8fS-31" value="DocumentRemoveBoldCommand" style="swimlane;fontStyle=1;align=center;verticalAlign=top;childLayout=stackLayout;horizontal=1;startSize=26;horizontalStack=0;resizeParent=1;resizeParentMax=0;resizeLast=0;collapsible=1;marginBottom=0;" parent="1" vertex="1">
          <mxGeometry x="660" y="670" width="290" height="140" as="geometry" />
        </mxCell>
        <mxCell id="SA7CHUhkUmkVCsYWN8fS-32" value="- editableDoc: Document&#xa;- line: int&#xa;&#xa;" style="text;strokeColor=none;fillColor=none;align=left;verticalAlign=top;spacingLeft=4;spacingRight=4;overflow=hidden;rotatable=0;points=[[0,0.5],[1,0.5]];portConstraint=eastwest;" parent="SA7CHUhkUmkVCsYWN8fS-31" vertex="1">
          <mxGeometry y="26" width="290" height="34" as="geometry" />
        </mxCell>
        <mxCell id="SA7CHUhkUmkVCsYWN8fS-33" value="" style="line;strokeWidth=1;fillColor=none;align=left;verticalAlign=middle;spacingTop=-1;spacingLeft=3;spacingRight=3;rotatable=0;labelPosition=right;points=[];portConstraint=eastwest;" parent="SA7CHUhkUmkVCsYWN8fS-31" vertex="1">
          <mxGeometry y="60" width="290" height="6" as="geometry" />
        </mxCell>
        <mxCell id="SA7CHUhkUmkVCsYWN8fS-34" value="+ DocumentRemoveBoldCommand(Document,int)&#xa;+ undo():void&#xa;+ redo():void&#xa;+ toString():String" style="text;strokeColor=none;fillColor=none;align=left;verticalAlign=top;spacingLeft=4;spacingRight=4;overflow=hidden;rotatable=0;points=[[0,0.5],[1,0.5]];portConstraint=eastwest;" parent="SA7CHUhkUmkVCsYWN8fS-31" vertex="1">
          <mxGeometry y="66" width="290" height="74" as="geometry" />
        </mxCell>
        <mxCell id="SA7CHUhkUmkVCsYWN8fS-35" value="DocumentInvoker" style="swimlane;fontStyle=1;align=center;verticalAlign=top;childLayout=stackLayout;horizontal=1;startSize=26;horizontalStack=0;resizeParent=1;resizeParentMax=0;resizeLast=0;collapsible=1;marginBottom=0;" parent="1" vertex="1">
          <mxGeometry x="1200" y="174" width="240" height="210" as="geometry" />
        </mxCell>
        <mxCell id="SA7CHUhkUmkVCsYWN8fS-36" value="- commands: ArrayList&#xa;- currentdoc: Document" style="text;strokeColor=none;fillColor=none;align=left;verticalAlign=top;spacingLeft=4;spacingRight=4;overflow=hidden;rotatable=0;points=[[0,0.5],[1,0.5]];portConstraint=eastwest;" parent="SA7CHUhkUmkVCsYWN8fS-35" vertex="1">
          <mxGeometry y="26" width="240" height="34" as="geometry" />
        </mxCell>
        <mxCell id="SA7CHUhkUmkVCsYWN8fS-37" value="" style="line;strokeWidth=1;fillColor=none;align=left;verticalAlign=middle;spacingTop=-1;spacingLeft=3;spacingRight=3;rotatable=0;labelPosition=right;points=[];portConstraint=eastwest;" parent="SA7CHUhkUmkVCsYWN8fS-35" vertex="1">
          <mxGeometry y="60" width="240" height="8" as="geometry" />
        </mxCell>
        <mxCell id="SA7CHUhkUmkVCsYWN8fS-38" value="+ DocumentInvoker(String)&#xa;+ Redo(int): void&#xa;+ Undo(int): void&#xa;+ Write(String):void&#xa;+ Erase(String):void&#xa;+ Bold(int):void&#xa;+ RemoveBold(int):void&#xa;+ Read():String&#xa;+ printCommandBuffer():void" style="text;strokeColor=none;fillColor=none;align=left;verticalAlign=top;spacingLeft=4;spacingRight=4;overflow=hidden;rotatable=0;points=[[0,0.5],[1,0.5]];portConstraint=eastwest;" parent="SA7CHUhkUmkVCsYWN8fS-35" vertex="1">
          <mxGeometry y="68" width="240" height="142" as="geometry" />
        </mxCell>
        <mxCell id="SA7CHUhkUmkVCsYWN8fS-39" style="edgeStyle=orthogonalEdgeStyle;rounded=0;orthogonalLoop=1;jettySize=auto;html=1;exitX=0;exitY=0;exitDx=0;exitDy=0;entryX=0.5;entryY=0;entryDx=0;entryDy=0;dashed=1;endArrow=block;endFill=0;" parent="1" source="SA7CHUhkUmkVCsYWN8fS-1" edge="1">
          <mxGeometry relative="1" as="geometry">
            <Array as="points">
              <mxPoint x="1460" y="448" />
              <mxPoint x="1460" y="428" />
              <mxPoint x="805" y="428" />
            </Array>
            <mxPoint x="805" y="448" as="targetPoint" />
          </mxGeometry>
        </mxCell>
        <mxCell id="SA7CHUhkUmkVCsYWN8fS-40" value="Implements" style="edgeLabel;html=1;align=center;verticalAlign=middle;resizable=0;points=[];" parent="SA7CHUhkUmkVCsYWN8fS-39" vertex="1" connectable="0">
          <mxGeometry x="0.101" y="-1" relative="1" as="geometry">
            <mxPoint as="offset" />
          </mxGeometry>
        </mxCell>
        <mxCell id="SA7CHUhkUmkVCsYWN8fS-41" style="edgeStyle=orthogonalEdgeStyle;rounded=0;orthogonalLoop=1;jettySize=auto;html=1;entryX=0;entryY=0.5;entryDx=0;entryDy=0;endArrow=open;endFill=0;" parent="1" source="SA7CHUhkUmkVCsYWN8fS-36" target="SA7CHUhkUmkVCsYWN8fS-14" edge="1">
          <mxGeometry relative="1" as="geometry">
            <Array as="points">
              <mxPoint x="1440" y="276" />
              <mxPoint x="1620" y="276" />
              <mxPoint x="1620" y="218" />
            </Array>
          </mxGeometry>
        </mxCell>
        <mxCell id="SA7CHUhkUmkVCsYWN8fS-42" value="Uses" style="edgeLabel;html=1;align=center;verticalAlign=middle;resizable=0;points=[];" parent="SA7CHUhkUmkVCsYWN8fS-41" vertex="1" connectable="0">
          <mxGeometry x="-0.2024" y="-1" relative="1" as="geometry">
            <mxPoint as="offset" />
          </mxGeometry>
        </mxCell>
        <mxCell id="SA7CHUhkUmkVCsYWN8fS-43" style="edgeStyle=orthogonalEdgeStyle;rounded=0;orthogonalLoop=1;jettySize=auto;html=1;entryX=0.5;entryY=1.02;entryDx=0;entryDy=0;entryPerimeter=0;endArrow=open;endFill=0;" parent="1" source="SA7CHUhkUmkVCsYWN8fS-4" target="SA7CHUhkUmkVCsYWN8fS-16" edge="1">
          <mxGeometry relative="1" as="geometry">
            <Array as="points">
              <mxPoint x="1790" y="568" />
            </Array>
          </mxGeometry>
        </mxCell>
        <mxCell id="SA7CHUhkUmkVCsYWN8fS-44" value="Uses" style="edgeLabel;html=1;align=center;verticalAlign=middle;resizable=0;points=[];" parent="SA7CHUhkUmkVCsYWN8fS-43" vertex="1" connectable="0">
          <mxGeometry x="-0.4486" y="4" relative="1" as="geometry">
            <mxPoint as="offset" />
          </mxGeometry>
        </mxCell>
        <mxCell id="SA7CHUhkUmkVCsYWN8fS-45" style="edgeStyle=orthogonalEdgeStyle;rounded=0;orthogonalLoop=1;jettySize=auto;html=1;endArrow=open;endFill=0;" parent="1" edge="1">
          <mxGeometry relative="1" as="geometry">
            <mxPoint x="1799" y="350" as="targetPoint" />
            <mxPoint x="1230" y="700" as="sourcePoint" />
            <Array as="points">
              <mxPoint x="1790" y="700" />
              <mxPoint x="1790" y="350" />
            </Array>
          </mxGeometry>
        </mxCell>
        <mxCell id="SA7CHUhkUmkVCsYWN8fS-46" value="Uses" style="edgeLabel;html=1;align=center;verticalAlign=middle;resizable=0;points=[];" parent="SA7CHUhkUmkVCsYWN8fS-45" vertex="1" connectable="0">
          <mxGeometry x="-0.255" y="5" relative="1" as="geometry">
            <mxPoint as="offset" />
          </mxGeometry>
        </mxCell>
        <mxCell id="SA7CHUhkUmkVCsYWN8fS-47" style="edgeStyle=orthogonalEdgeStyle;rounded=0;orthogonalLoop=1;jettySize=auto;html=1;exitX=1;exitY=0.5;exitDx=0;exitDy=0;endArrow=open;endFill=0;" parent="1" source="SA7CHUhkUmkVCsYWN8fS-32" edge="1">
          <mxGeometry relative="1" as="geometry">
            <mxPoint x="1790" y="348" as="targetPoint" />
            <Array as="points">
              <mxPoint x="960" y="705" />
              <mxPoint x="960" y="810" />
              <mxPoint x="1790" y="810" />
            </Array>
          </mxGeometry>
        </mxCell>
        <mxCell id="SA7CHUhkUmkVCsYWN8fS-48" value="Uses" style="edgeLabel;html=1;align=center;verticalAlign=middle;resizable=0;points=[];" parent="SA7CHUhkUmkVCsYWN8fS-47" vertex="1" connectable="0">
          <mxGeometry x="-0.1765" y="4" relative="1" as="geometry">
            <mxPoint as="offset" />
          </mxGeometry>
        </mxCell>
        <mxCell id="SA7CHUhkUmkVCsYWN8fS-49" style="edgeStyle=orthogonalEdgeStyle;rounded=0;orthogonalLoop=1;jettySize=auto;html=1;endArrow=open;endFill=0;" parent="1" edge="1">
          <mxGeometry relative="1" as="geometry">
            <mxPoint x="1790" y="348" as="targetPoint" />
            <mxPoint x="630" y="698" as="sourcePoint" />
            <Array as="points">
              <mxPoint x="630" y="698" />
              <mxPoint x="650" y="698" />
              <mxPoint x="650" y="868" />
              <mxPoint x="1790" y="868" />
            </Array>
          </mxGeometry>
        </mxCell>
        <mxCell id="SA7CHUhkUmkVCsYWN8fS-50" value="Uses" style="edgeLabel;html=1;align=center;verticalAlign=middle;resizable=0;points=[];" parent="SA7CHUhkUmkVCsYWN8fS-49" vertex="1" connectable="0">
          <mxGeometry x="0.0104" y="4" relative="1" as="geometry">
            <mxPoint as="offset" />
          </mxGeometry>
        </mxCell>
        <mxCell id="SA7CHUhkUmkVCsYWN8fS-51" value="Command" style="swimlane;fontStyle=1;align=center;verticalAlign=top;childLayout=stackLayout;horizontal=1;startSize=26;horizontalStack=0;resizeParent=1;resizeParentMax=0;resizeLast=0;collapsible=1;marginBottom=0;" parent="1" vertex="1">
          <mxGeometry x="760" y="448" width="80" height="66" as="geometry">
            <mxRectangle x="190" width="90" height="26" as="alternateBounds" />
          </mxGeometry>
        </mxCell>
        <mxCell id="SA7CHUhkUmkVCsYWN8fS-52" value="+undo():void&#xa;+redo():void" style="text;strokeColor=none;fillColor=none;align=left;verticalAlign=top;spacingLeft=4;spacingRight=4;overflow=hidden;rotatable=0;points=[[0,0.5],[1,0.5]];portConstraint=eastwest;" parent="SA7CHUhkUmkVCsYWN8fS-51" vertex="1">
          <mxGeometry y="26" width="80" height="40" as="geometry" />
        </mxCell>
        <mxCell id="SA7CHUhkUmkVCsYWN8fS-59" value="DocumentBoldCommand" style="swimlane;fontStyle=1;align=center;verticalAlign=top;childLayout=stackLayout;horizontal=1;startSize=26;horizontalStack=0;resizeParent=1;resizeParentMax=0;resizeLast=0;collapsible=1;marginBottom=0;" parent="1" vertex="1">
          <mxGeometry x="850" y="500" width="230" height="140" as="geometry" />
        </mxCell>
        <mxCell id="SA7CHUhkUmkVCsYWN8fS-60" value="-editableDoc;Document&#xa;-line:int" style="text;strokeColor=none;fillColor=none;align=left;verticalAlign=top;spacingLeft=4;spacingRight=4;overflow=hidden;rotatable=0;points=[[0,0.5],[1,0.5]];portConstraint=eastwest;" parent="SA7CHUhkUmkVCsYWN8fS-59" vertex="1">
          <mxGeometry y="26" width="230" height="34" as="geometry" />
        </mxCell>
        <mxCell id="SA7CHUhkUmkVCsYWN8fS-61" value="" style="line;strokeWidth=1;fillColor=none;align=left;verticalAlign=middle;spacingTop=-1;spacingLeft=3;spacingRight=3;rotatable=0;labelPosition=right;points=[];portConstraint=eastwest;" parent="SA7CHUhkUmkVCsYWN8fS-59" vertex="1">
          <mxGeometry y="60" width="230" height="8" as="geometry" />
        </mxCell>
        <mxCell id="SA7CHUhkUmkVCsYWN8fS-62" value="+DocumentBoldCommand(Document,int)&#xa;+undo():void&#xa;+redo():void&#xa;+toString():String" style="text;strokeColor=none;fillColor=none;align=left;verticalAlign=top;spacingLeft=4;spacingRight=4;overflow=hidden;rotatable=0;points=[[0,0.5],[1,0.5]];portConstraint=eastwest;" parent="SA7CHUhkUmkVCsYWN8fS-59" vertex="1">
          <mxGeometry y="68" width="230" height="72" as="geometry" />
        </mxCell>
      </root>
    </mxGraphModel>
  </diagram>
</mxfile>
